<svg width="20" height="20" viewBox="0 0 20 20" fill="none" xmlns="http://www.w3.org/2000/svg">
<g clip-path="url(#clip0)">
<path d="M17.8988 4.59L10.3409 0.0937067C10.1308 -0.0312152 9.86924 -0.0312152 9.6592 0.0937067L2.10127 4.59C1.89928 4.71019 1.77545 4.92793 1.77545 5.16297V7.72965C1.77545 13.1357 4.89889 18.0732 9.75932 19.955C9.91405 20.015 10.0858 20.015 10.2407 19.955C15.0894 18.0779 18.2246 13.1511 18.2246 7.72965V5.16297C18.2246 4.92789 18.1008 4.71019 17.8988 4.59ZM13.2937 8.50195L9.11533 12.6803C8.85498 12.9407 8.43287 12.9407 8.17252 12.6803L6.70612 11.2139C6.44576 10.9536 6.44576 10.5315 6.70612 10.2711C6.96647 10.0108 7.38862 10.0108 7.64893 10.2711L8.64389 11.2661L12.3508 7.55914C12.6112 7.29883 13.0333 7.29883 13.2937 7.55914C13.554 7.81953 13.554 8.24164 13.2937 8.50195Z" fill="black"/>
</g>
<defs>
<clipPath id="clip0">
<rect width="20" height="20" fill="white"/>
</clipPath>
</defs>
</svg>
