<svg width="160" height="31" viewBox="0 0 160 31" fill="none" xmlns="http://www.w3.org/2000/svg">
<path d="M14.6595 30.2051C14.6595 30.4051 14.4595 30.5051 14.1595 30.5051H10.0195C9.91436 30.5205 9.80708 30.4991 9.71593 30.4444C9.62477 30.3897 9.55537 30.3052 9.51953 30.2051L0.0195311 0.905081C-0.0404689 0.605081 0.0195311 0.505081 0.459531 0.505081H5.25953C5.39095 0.488312 5.524 0.519542 5.63423 0.59303C5.74446 0.666517 5.82447 0.777324 5.85953 0.905081L12.2595 22.5051L18.7595 0.905081C18.7946 0.777324 18.8746 0.666517 18.9848 0.59303C19.0951 0.519542 19.2281 0.488312 19.3595 0.505081H23.6595C23.7785 0.493737 23.8972 0.529144 23.9906 0.603805C24.0839 0.678465 24.1445 0.786517 24.1595 0.905081L30.7595 22.7051L37.2595 0.805081C37.2595 0.605081 37.4595 0.505081 37.7595 0.505081H42.5595C42.8595 0.505081 42.9595 0.705081 42.8595 0.905081L33.3595 30.2051C33.3008 30.3092 33.2123 30.3933 33.1054 30.4468C32.9985 30.5002 32.878 30.5205 32.7595 30.5051H28.7595C28.641 30.5205 28.5206 30.5002 28.4137 30.4468C28.3068 30.3933 28.2183 30.3092 28.1595 30.2051L21.3595 7.00508L14.6595 30.2051Z" fill="#3C3C3B"/>
<path d="M53.8595 22.5051L50.5595 30.2051C50.5595 30.4051 50.3595 30.5051 50.0595 30.5051H45.3595C45.0595 30.5051 44.8595 30.3051 45.0595 30.0051L57.2595 0.805068C57.317 0.671451 57.4164 0.560158 57.5426 0.487997C57.6689 0.415837 57.8153 0.386728 57.9595 0.405068H62.8595C62.991 0.388299 63.124 0.419529 63.2342 0.493017C63.3445 0.566505 63.4245 0.677311 63.4595 0.805068L75.7595 30.0051C75.8595 30.3051 75.7595 30.5051 75.3595 30.5051H70.6595C70.5565 30.507 70.4549 30.4798 70.3665 30.4268C70.2781 30.3737 70.2064 30.2969 70.1595 30.2051L66.9595 22.5051H53.8595ZM55.6595 18.1051H65.0195L60.3595 7.00507L55.6595 18.1051Z" fill="#3C3C3B"/>
<path d="M74.8595 5.40508C74.7558 5.39806 74.658 5.35366 74.5845 5.28011C74.5109 5.20656 74.4666 5.10885 74.4595 5.00507V0.805075C74.4595 0.505075 74.6595 0.405075 74.9595 0.405075H98.0195C98.1233 0.412095 98.221 0.456491 98.2946 0.530039C98.3681 0.603587 98.4125 0.7013 98.4195 0.805075V4.90508C98.4195 5.20508 98.3195 5.30508 98.0195 5.30508H89.2195V30.1051C89.2125 30.2089 89.1681 30.3066 89.0946 30.3801C89.021 30.4537 88.9233 30.4981 88.8195 30.5051H84.1195C84.0006 30.5164 83.8818 30.481 83.7885 30.4064C83.6952 30.3317 83.6346 30.2236 83.6195 30.1051V5.40508H74.8595Z" fill="#3C3C3B"/>
<path d="M117.66 30.9051C107.76 30.9051 101.16 24.6051 101.16 15.5051C101.16 5.20507 109.46 0.00507451 117.66 0.00507451C121.881 -0.0962752 125.998 1.3234 129.26 4.00507C129.305 4.0406 129.342 4.0861 129.368 4.13809C129.393 4.19008 129.406 4.24719 129.406 4.30507C129.406 4.36295 129.393 4.42007 129.368 4.47206C129.342 4.52405 129.305 4.56955 129.26 4.60507L126.56 7.90507C126.56 8.00507 126.36 8.00507 126.26 8.00507C126.205 8.01161 126.15 8.00603 126.098 7.98874C126.046 7.97145 125.999 7.94287 125.96 7.90507C123.655 6.01043 120.742 5.01562 117.76 5.10507C111.26 5.10507 106.86 9.20507 106.86 15.5051C106.86 21.8051 111.26 25.8051 117.76 25.8051C120.717 25.8396 123.601 24.8898 125.96 23.1051C126.06 23.0051 126.16 23.0051 126.36 23.0051C126.414 22.9985 126.469 23.0041 126.521 23.0214C126.573 23.0387 126.62 23.0673 126.66 23.1051L129.46 26.4051C129.56 26.6051 129.66 26.8051 129.46 27.0051C126.096 29.632 121.926 31.0105 117.66 30.9051Z" fill="#3C3C3B"/>
<path d="M134.76 30.5051C134.641 30.5164 134.522 30.481 134.429 30.4064C134.335 30.3317 134.275 30.2236 134.26 30.1051V0.805075C134.26 0.505075 134.46 0.405075 134.76 0.405075H139.46C139.563 0.412095 139.661 0.456491 139.735 0.530039C139.808 0.603587 139.853 0.7013 139.86 0.805075V13.1051H153.76V0.805075C153.76 0.505075 153.96 0.405075 154.26 0.405075H158.96C159.063 0.412095 159.161 0.456491 159.235 0.530039C159.308 0.603587 159.353 0.7013 159.36 0.805075V30.1051C159.36 30.4051 159.16 30.5051 158.86 30.5051H154.16C154.056 30.4981 153.958 30.4537 153.884 30.3801C153.811 30.3066 153.767 30.2089 153.76 30.1051V17.6051H139.86V30.1051C139.86 30.4051 139.66 30.5051 139.36 30.5051H134.76Z" fill="#3C3C3B"/>
</svg>
