<svg width="20" height="21" viewBox="0 0 20 21" fill="none" xmlns="http://www.w3.org/2000/svg">
<path d="M3.01249 5.55708L9.67916 8.33458C9.78068 8.37749 9.88977 8.39959 9.99999 8.39959C10.1102 8.39959 10.2193 8.37749 10.3208 8.33458L16.9875 5.55708C17.1391 5.49366 17.2685 5.38684 17.3595 5.25006C17.4506 5.11328 17.4992 4.95264 17.4992 4.78833C17.4992 4.62402 17.4506 4.46338 17.3595 4.3266C17.2685 4.18982 17.1391 4.083 16.9875 4.01958L10.3208 1.24124C10.1154 1.15624 9.8846 1.15624 9.67916 1.24124L3.01249 4.01958C2.86092 4.083 2.73148 4.18982 2.64044 4.3266C2.5494 4.46338 2.50082 4.62402 2.50082 4.78833C2.50082 4.95264 2.5494 5.11328 2.64044 5.25006C2.73148 5.38684 2.86092 5.49366 3.01249 5.55708ZM9.99999 2.91291L14.5 4.78791L9.99999 6.66291L5.49999 4.78791L9.99999 2.91291Z" fill="black"/>
<path d="M17.4358 8.17125C17.3937 8.07023 17.3321 7.97851 17.2545 7.9013C17.1769 7.8241 17.0849 7.76294 16.9837 7.72131C16.8825 7.67967 16.7741 7.65839 16.6646 7.65866C16.5552 7.65894 16.4468 7.68077 16.3458 7.72291L10 10.3671L3.65417 7.72291C3.45017 7.63782 3.22073 7.63725 3.01632 7.72133C2.8119 7.80541 2.64926 7.96725 2.56417 8.17125C2.47908 8.37524 2.47851 8.60468 2.56259 8.8091C2.64667 9.01351 2.80851 9.17616 3.0125 9.26125L9.67917 12.0388C9.78082 12.0812 9.88986 12.103 10 12.103C10.1101 12.103 10.2192 12.0812 10.3208 12.0388L16.9875 9.26125C17.0885 9.21912 17.1802 9.15751 17.2574 9.07993C17.3346 9.00235 17.3958 8.91033 17.4374 8.80911C17.4791 8.70789 17.5004 8.59946 17.5001 8.49002C17.4998 8.38057 17.478 8.27225 17.4358 8.17125Z" fill="black"/>
<path d="M16.3458 11.4271L10 14.0704L3.65417 11.4271C3.45017 11.342 3.22073 11.3414 3.01632 11.4255C2.8119 11.5096 2.64926 11.6714 2.56417 11.8754C2.47908 12.0794 2.47851 12.3089 2.56259 12.5133C2.64667 12.7177 2.80851 12.8803 3.0125 12.9654L9.67917 15.7438C9.78082 15.7862 9.88986 15.808 10 15.808C10.1101 15.808 10.2192 15.7862 10.3208 15.7438L16.9875 12.9654C17.1915 12.8803 17.3533 12.7177 17.4374 12.5133C17.5215 12.3089 17.5209 12.0794 17.4358 11.8754C17.3507 11.6714 17.1881 11.5096 16.9837 11.4255C16.7793 11.3414 16.5498 11.342 16.3458 11.4271Z" fill="black"/>
<path d="M3.01251 16.6679L9.67917 19.4463C9.78082 19.4887 9.88987 19.5105 10 19.5105C10.1101 19.5105 10.2192 19.4887 10.3208 19.4463L16.9875 16.6679C17.0914 16.6279 17.1863 16.5674 17.2665 16.4901C17.3466 16.4128 17.4105 16.3202 17.4543 16.2178C17.4981 16.1154 17.5208 16.0052 17.5213 15.8938C17.5218 15.7825 17.4999 15.6721 17.457 15.5693C17.4141 15.4665 17.3511 15.3734 17.2716 15.2954C17.1921 15.2174 17.0977 15.1561 16.9941 15.1152C16.8905 15.0743 16.7798 15.0546 16.6684 15.0572C16.5571 15.0598 16.4474 15.0847 16.3458 15.1304L10 17.7746L3.65417 15.1304C3.55261 15.0847 3.44292 15.0598 3.33157 15.0572C3.22022 15.0546 3.10948 15.0743 3.00589 15.1152C2.90229 15.1561 2.80796 15.2174 2.72845 15.2954C2.64894 15.3734 2.58587 15.4665 2.54297 15.5693C2.50007 15.6721 2.47822 15.7825 2.47869 15.8938C2.47917 16.0052 2.50196 16.1154 2.54574 16.2178C2.58951 16.3202 2.65337 16.4128 2.73354 16.4901C2.81371 16.5674 2.90857 16.6279 3.01251 16.6679Z" fill="black"/>
</svg>
