<svg width="20" height="20" viewBox="0 0 20 20" fill="none" xmlns="http://www.w3.org/2000/svg">
<path d="M7.4375 9.79375C8.15625 10.3188 9.04375 10.625 10 10.625C12.3387 10.625 14.375 8.60063 14.375 6.25C14.375 3.8375 12.4125 1.875 10 1.875C7.5875 1.875 5.625 3.8375 5.625 6.25C5.625 7.70625 6.3375 9 7.4375 9.79375Z" fill="black"/>
<path d="M13.85 10.3438C12.8438 11.2937 11.4875 11.875 10 11.875C8.5125 11.875 7.15625 11.2937 6.15 10.3438C3.60625 11.7187 1.875 14.4125 1.875 17.5C1.875 17.8438 2.15625 18.125 2.5 18.125H17.5C17.8438 18.125 18.125 17.8438 18.125 17.5C18.125 14.4125 16.3938 11.7187 13.85 10.3438Z" fill="black"/>
</svg>
