<svg width="20" height="20" viewBox="0 0 20 20" fill="none" xmlns="http://www.w3.org/2000/svg">
<g clip-path="url(#clip0)">
<path d="M12.6366 7.5373C12.5075 7.40827 12.3276 7.33426 12.143 7.33426C11.9557 7.33426 11.7804 7.40632 11.6493 7.5373L9.20489 9.9817L8.36077 9.13747C8.22895 9.00603 8.05378 8.93364 7.8676 8.93364C7.68126 8.93364 7.50598 9.00614 7.37399 9.13802C7.2421 9.26996 7.16943 9.44536 7.16943 9.63181C7.16943 9.81843 7.24216 9.99382 7.37393 10.1255L8.71167 11.4634C8.84243 11.5939 9.0176 11.6657 9.20478 11.6657C9.20484 11.6657 9.20484 11.6657 9.20484 11.6657C9.39213 11.6657 9.56724 11.5938 9.69862 11.4629L12.6367 8.52482C12.9089 8.25268 12.9089 7.80978 12.6366 7.5373Z" fill="black"/>
<path d="M18.1514 4.12182C18.1404 3.99463 18.0633 3.88258 17.9486 3.82677L10.1588 0.0365844C10.0586 -0.0122355 9.94137 -0.0122355 9.84111 0.0365844L2.05144 3.82672C1.93665 3.88258 1.85956 3.99457 1.84856 4.12176C1.83862 4.23605 1.61524 6.95935 2.47579 10.2855C2.9827 12.2449 3.76326 14.0025 4.79574 15.5098C6.09069 17.4 7.78537 18.8971 9.83284 19.9592C9.88524 19.9864 9.94266 20 10 20C10.0574 20 10.1148 19.9864 10.1672 19.9592C12.2146 18.8971 13.9094 17.4001 15.2044 15.5098C16.2368 14.0025 17.0174 12.2449 17.5243 10.2855C18.3848 6.95935 18.1614 4.2361 18.1514 4.12182ZM9.99997 14.0595C7.45352 14.0595 5.38186 11.9879 5.38186 9.4414C5.38186 6.89494 7.45352 4.82328 9.99997 4.82328C12.5464 4.82328 14.6181 6.89494 14.6181 9.4414C14.6181 11.9879 12.5464 14.0595 9.99997 14.0595Z" fill="black"/>
</g>
<defs>
<clipPath id="clip0">
<rect width="20" height="20" fill="white"/>
</clipPath>
</defs>
</svg>
